<svg xmlns="http://www.w3.org/2000/svg" xmlns:xlink="http://www.w3.org/1999/xlink" version="1.1" x="0px" y="0px" viewBox="0 0 100 100" style="enable-background:new 0 0 100 100;" xml:space="preserve"><style type="text/css">
	.st0{fill:#FFA62B;}
</style><path class="st0" d="M75.2,38.9c-4.7-15.1-18.9-26.1-35.6-26.1C19,12.7,2.3,29.4,2.3,50S19,87.3,39.6,87.3c16.7,0,30.8-11,35.6-26.1  L97.7,50L75.2,38.9z M46.2,56.9c-2.8,0-5.6-1-7.9-1.8c-2.2-0.8-4-1.5-5.2-1.5c-2.4,0-3.3,1.4-4.5,4l-7.5-2.1  c1.8-8,4.6-12.4,10.5-12.4c2.8,0,5.6,1,7.8,1.9c2.2,0.7,4,1.5,5.3,1.5c2.4,0,3.3-1.3,4.4-4l7.6,2.1C54.8,52.7,52,56.9,46.2,56.9z"/></svg>